<?xml version="1.0" encoding="utf-8"?>
<!-- Generator: Adobe Illustrator 16.0.0, SVG Export Plug-In . SVG Version: 6.00 Build 0)  -->
<!DOCTYPE svg PUBLIC "-//W3C//DTD SVG 1.1//EN" "http://www.w3.org/Graphics/SVG/1.1/DTD/svg11.dtd">
<svg version="1.1" xmlns="http://www.w3.org/2000/svg" xmlns:xlink="http://www.w3.org/1999/xlink" x="0px" y="0px" width="1000px"
	 height="1000px" viewBox="-450 -450 1000 1000" enable-background="new -450 -450 1000 1000" xml:space="preserve">
<g id="Ebene_1">
	<path fill="#FFEC00" d="M46.431,34.526c1.186,0,2.383,0,3.569,0c1.186,0,2.383,0,3.569,0l199.997-483.34
		C235.709-445.233,146.424-427.376,50-427.376c-116.665,0-155.948-11.905-203.567-21.438L46.431,34.526z"/>
	<path fill="#FFEC00" d="M58.336,36.909c2.383,1.186,3.568,3.569,4.755,4.755l483.34-199.998
		c-17.856-8.335-107.143-51.188-172.618-116.664c-65.477-65.476-107.144-152.379-115.479-171.433L58.336,36.909z"/>
	<path fill="#FFEC00" d="M548.814-153.567L65.474,46.431c0,1.186,0,2.383,0,3.569c0,1.186,0,2.383,0,3.569l483.341,199.997
		c-5.953-17.857-30.959-101.189-28.576-216.657C522.621-75,542.861-138.093,548.814-153.567z"/>
	<path d="M-157.147-450L-157.147-450L-157.147-450z"/>
	<path fill="#FFEC00" d="M-448.814-153.567c4.766,16.66,27.39,99.993,27.39,191.662c0,90.471-23.81,196.428-28.576,215.471
		L33.329,53.569c0-1.187,0-2.384,0-3.569c0-1.186,0-2.383,0-3.569L-448.814-153.567z"/>
	<path d="M550,257.147L550,257.147L550,257.147z"/>
	<path fill="#FFEC00" d="M35.712,41.665c1.197-2.383,3.569-3.569,4.767-4.755l-199.998-483.34
		c-9.533,15.474-61.907,97.621-108.34,151.192c-60.71,69.045-160.714,126.186-179.757,136.905L35.712,41.665z"/>
	<path fill="#FFEC00" d="M63.091,59.521c-1.187,2.383-3.569,3.569-4.755,4.767l199.998,483.329
		c9.521-15.475,58.338-95.238,132.138-167.854C461.9,309.521,532.143,267.855,546.431,259.52L63.091,59.521z"/>
	<path fill="#FFEC00" d="M53.569,66.672c-1.187,0-2.384,0-3.569,0c-1.186,0-2.383,0-3.569,0L-154.764,550
		c20.24-3.569,127.383-23.81,210.716-24.995C138.1,523.807,234.523,545.233,253.566,550L53.569,66.672z"/>
	<path fill="#FFEC00" d="M40.479,64.288c-2.383-1.197-3.569-3.569-4.767-4.767l-482.143,198.812
		c16.671,8.335,96.436,47.618,163.097,119.047c67.86,72.614,115.479,152.379,123.814,169.05L40.479,64.288z"/>
	<g id="Layer_4">
	</g>
</g>
<g id="Ebene_1_copy">
	<path fill="#FFEC00" stroke="#000000" stroke-width="10" stroke-miterlimit="10" d="M46.431,34.526c1.186,0,2.383,0,3.569,0
		c1.186,0,2.383,0,3.569,0l199.997-483.34C235.709-445.233,146.424-427.376,50-427.376c-116.665,0-155.948-11.905-203.567-21.438
		L46.431,34.526z"/>
	<path fill="#FFEC00" stroke="#000000" stroke-width="10" stroke-miterlimit="10" d="M58.336,36.909
		c2.383,1.186,3.568,3.569,4.755,4.755l483.34-199.998c-17.856-8.335-107.143-51.188-172.618-116.664
		c-65.477-65.476-107.144-152.379-115.479-171.433L58.336,36.909z"/>
	<path fill="#FFEC00" stroke="#000000" stroke-width="10" stroke-miterlimit="10" d="M548.814-153.567L65.474,46.431
		c0,1.186,0,2.383,0,3.569c0,1.186,0,2.383,0,3.569l483.341,199.997c-5.953-17.857-30.959-101.189-28.576-216.657
		C522.621-75,542.861-138.093,548.814-153.567z"/>
	<path d="M-157.147-450L-157.147-450L-157.147-450z"/>
	<path fill="#FFEC00" stroke="#000000" stroke-width="10" stroke-miterlimit="10" d="M-448.814-153.567
		c4.766,16.66,27.39,99.993,27.39,191.662c0,90.471-23.81,196.428-28.576,215.471L33.329,53.569c0-1.187,0-2.384,0-3.569
		c0-1.186,0-2.383,0-3.569L-448.814-153.567z"/>
	<path d="M550,257.147L550,257.147L550,257.147z"/>
	<path fill="#FFEC00" stroke="#000000" stroke-width="10" stroke-miterlimit="10" d="M35.712,41.665
		c1.197-2.383,3.569-3.569,4.767-4.755l-199.998-483.34c-9.533,15.474-61.907,97.621-108.34,151.192
		c-60.71,69.045-160.714,126.186-179.757,136.905L35.712,41.665z"/>
	<path fill="#FFEC00" stroke="#070707" stroke-width="10" stroke-miterlimit="10" d="M63.091,59.521
		c-1.187,2.383-3.569,3.569-4.755,4.767l199.998,483.329c9.521-15.475,58.338-95.238,132.138-167.854
		C461.9,309.521,532.143,267.855,546.431,259.52L63.091,59.521z"/>
	<path fill="#FFEC00" stroke="#020202" stroke-width="10" stroke-miterlimit="10" d="M53.569,66.672c-1.187,0-2.384,0-3.569,0
		c-1.186,0-2.383,0-3.569,0L-154.764,550c20.24-3.569,127.383-23.81,210.716-24.995C138.1,523.807,234.523,545.233,253.566,550
		L53.569,66.672z"/>
	<path fill="#FFEC00" stroke="#000000" stroke-width="10" stroke-miterlimit="10" d="M40.479,64.288
		c-2.383-1.197-3.569-3.569-4.767-4.767l-482.143,198.812c16.671,8.335,96.436,47.618,163.097,119.047
		c67.86,72.614,115.479,152.379,123.814,169.05L40.479,64.288z"/>
	<g id="Layer_4_copy">
	</g>
</g>
<g id="Layer_2">
	<g>
		<path d="M303.439,199.174l-86.152-34.699c-4.032-1.624-9.479,0.522-11.856,2.764l-10.281,9.309l59.875,81.697l-82.129-59.737
			l-8.958,10.262c-2.093,2.521-4.074,7.754-2.535,11.575l34.546,86.316c2.32,5.793,9.667,8.322,16.459,5.594l1.345-0.518
			c6.79-2.729,10.007-9.243,7.691-15.037l-18.29-44.102l37.965,37.968l1.721,1.72l85.173,85.174c5.834,5.834,15.524,5.61,20.71,0.43
			l1.035-1.035c5.17-5.174,4.848-14.318-0.986-20.153l-65.543-65.543l4.611-4.612l65.542,65.54
			c5.839,5.838,15.14,6.003,20.311,0.833l1.045-1.045c5.168-5.166,5.239-14.709-0.596-20.544l-85.174-85.173l-1.72-1.72
			l-37.604-37.604l43.681,17.986c5.789,2.322,12.551-1.143,15.278-7.931l0.464-1.29C311.796,208.807,309.224,201.5,303.439,199.174z
			"/>
		<path d="M178.396,182.318c11.396-11.396,11.399-29.873-0.007-41.279c-11.403-11.403-29.868-11.392-41.264,0.005
			c-11.4,11.401-11.416,29.871-0.016,41.272C148.517,193.722,166.999,193.715,178.396,182.318z"/>
	</g>
	<g>
		<path d="M-207.021-95.593l86.153,34.699c4.032,1.624,9.479-0.522,11.855-2.763l10.282-9.31l-59.875-81.697l82.129,59.738
			l8.958-10.263c2.092-2.52,4.073-7.753,2.535-11.574l-34.546-86.317c-2.32-5.793-9.667-8.323-16.458-5.594l-1.345,0.519
			c-6.79,2.728-10.007,9.242-7.691,15.036l18.289,44.102l-37.965-37.969l-1.721-1.719l-85.172-85.173
			c-5.834-5.835-15.524-5.611-20.71-0.43l-1.035,1.035c-5.17,5.173-4.848,14.318,0.987,20.153l65.542,65.543l-4.612,4.611
			l-65.542-65.539c-5.838-5.838-15.14-6.003-20.31-0.833l-1.045,1.044c-5.168,5.167-5.24,14.71,0.596,20.545l85.173,85.172
			l1.72,1.721l37.605,37.604l-43.681-17.987c-5.789-2.322-12.551,1.143-15.278,7.931l-0.464,1.291
			C-215.376-105.226-212.806-97.918-207.021-95.593z"/>
		<path d="M-81.977-78.737c-11.396,11.396-11.399,29.873,0.006,41.279c11.404,11.404,29.869,11.392,41.263-0.005
			c11.401-11.4,11.417-29.87,0.017-41.271C-52.098-90.14-70.579-90.134-81.977-78.737z"/>
	</g>
	<g>
		<path d="M-95.433,307.158l34.795-86.39c1.628-4.045-0.523-9.506-2.77-11.89l-9.335-10.311l-81.923,60.041l59.903-82.356
			l-10.291-8.981c-2.527-2.099-7.775-4.086-11.606-2.542l-86.555,34.642c-5.81,2.325-8.345,9.692-5.609,16.503l0.52,1.349
			c2.736,6.809,9.268,10.034,15.078,7.713l44.224-18.34l-38.073,38.068l-1.724,1.726l-85.408,85.407
			c-5.851,5.852-5.626,15.568-0.431,20.768l1.038,1.039c5.188,5.184,14.357,4.86,20.208-0.99l65.724-65.723l4.624,4.624
			l-65.72,65.723c-5.854,5.854-6.02,15.182-0.836,20.366l1.047,1.048c5.181,5.182,14.75,5.254,20.602-0.598l85.407-85.408
			l1.726-1.724l37.708-37.71l-18.037,43.802c-2.329,5.805,1.146,12.586,7.952,15.32l1.294,0.465
			C-105.092,315.536-97.765,312.959-95.433,307.158z"/>
		<path d="M-78.531,181.769c11.427,11.429,29.956,11.432,41.393-0.007c11.436-11.435,11.424-29.949-0.005-41.377
			c-11.432-11.432-29.952-11.447-41.384-0.018C-89.965,151.809-89.959,170.341-78.531,181.769z"/>
	</g>
	<g>
		<path d="M195.434-203.578l-34.795,86.391c-1.629,4.044,0.523,9.505,2.77,11.888l9.336,10.311l81.923-60.041l-59.903,82.356
			l10.291,8.983c2.527,2.098,7.774,4.084,11.605,2.542l86.556-34.642c5.81-2.327,8.346-9.694,5.608-16.504l-0.519-1.349
			c-2.736-6.809-9.268-10.035-15.078-7.712l-44.224,18.339l38.073-38.069l1.724-1.726l85.408-85.407
			c5.852-5.851,5.627-15.567,0.432-20.768l-1.038-1.038c-5.188-5.184-14.358-4.861-20.208,0.99L287.67-183.31l-4.624-4.624
			l65.72-65.723c5.854-5.854,6.021-15.182,0.836-20.366l-1.047-1.048c-5.182-5.182-14.751-5.254-20.602,0.597l-85.408,85.409
			l-1.725,1.724l-37.709,37.709l18.037-43.802c2.329-5.804-1.146-12.585-7.952-15.319l-1.294-0.466
			C205.093-211.956,197.765-209.378,195.434-203.578z"/>
		<path d="M178.53-78.188c-11.427-11.428-29.954-11.431-41.393,0.006c-11.436,11.435-11.422,29.95,0.006,41.377
			c11.433,11.432,29.952,11.448,41.385,0.017C189.966-48.228,189.96-66.76,178.53-78.188z"/>
	</g>
</g>
<g id="Layer_3">
	<g>
		<path d="M70.572,237.201c17.092,0,24.023,14.086,26.613,21.851l20.993,69.024c4.189,14.848-14.694,20.994-19.2,6.527
			l-18.891-63.378h-5.502l32.748,112.734h-30.17v87.889c0,14.988-22.545,14.912-22.545,0v-88.466h-9.185l0.012,88.343
			c0,15.111-22.636,15.111-22.636,0l-0.006-87.766H-7.462l32.494-112.734h-5.084L1.052,334.826
			c-4.5,13.863-23.551,8.174-19.188-6.686l20.981-69.089c2.247-7.875,9.135-21.851,26.386-21.851H70.572z"/>
		<circle cx="50.018" cy="207.553" r="24.492"/>
	</g>
	<g>
		<path d="M-141.245,70.572c0,17.092-14.086,24.023-21.851,26.613l-69.025,20.992c-14.848,4.189-20.994-14.693-6.527-19.199
			l63.378-18.891v-5.502l-112.734,32.748v-30.17h-87.888c-14.988,0-14.912-22.545,0-22.545h88.464v-9.185l-88.341,0.012
			c-15.111,0-15.111-22.635,0-22.635l87.765-0.006V-7.462l112.734,32.494v-5.084L-238.87,1.051
			c-13.863-4.5-8.174-23.55,6.686-19.188l69.089,20.981c7.875,2.248,21.851,9.135,21.851,26.386V70.572z"/>
		<circle cx="-111.596" cy="50.017" r="24.492"/>
	</g>
	<g>
		<path d="M241.084,29.446c0-17.092,14.086-24.023,21.851-26.613l69.024-20.993c14.848-4.189,20.994,14.694,6.527,19.2
			l-63.378,18.891v5.502L387.843-7.315v30.17h87.888c14.988,0,14.912,22.544,0,22.544h-88.465v9.185l88.342-0.012
			c15.111,0,15.111,22.636,0,22.636l-87.765,0.006v30.267L275.108,74.986v5.084l63.601,18.896c13.863,4.5,8.174,23.551-6.686,19.188
			l-69.089-20.98c-7.875-2.247-21.851-9.135-21.851-26.385V29.446z"/>
		<circle cx="211.436" cy="50.001" r="24.492"/>
	</g>
	<g>
		<path d="M28.829-141.426c-17.092,0-24.023-14.086-26.613-21.851l-20.993-69.024c-4.189-14.848,14.694-20.995,19.2-6.527
			l18.891,63.378h5.502L-7.933-288.185h30.17v-87.889c0-14.988,22.544-14.912,22.544,0v88.465h9.186l-0.012-88.342
			c0-15.111,22.635-15.111,22.635,0l0.006,87.766l30.268-0.001L74.369-175.45h5.084l18.896-63.601
			c4.5-13.864,23.551-8.175,19.188,6.684l-20.98,69.09c-2.248,7.875-9.135,21.851-26.385,21.851H28.829z"/>
		<circle cx="49.383" cy="-111.778" r="24.491"/>
	</g>
</g>
</svg>
