<svg xmlns="http://www.w3.org/2000/svg" xmlns:xlink="http://www.w3.org/1999/xlink" version="1.1" id="Layer_1" x="0px" y="0px" width="100px" height="100px" viewBox="355 0 100 100" enable-background="new 355 0 100 100" xml:space="preserve">
<g>
	<path d="M405.061,16.666c2.056,0,3.729,1.667,3.729,3.729c0,2.057-1.673,3.723-3.729,3.723c-2.06,0-3.729-1.666-3.729-3.723   C401.332,18.333,403.001,16.666,405.061,16.666z"/>
	<path d="M400.651,60.26c0,1.151,0.94,2.09,2.09,2.09c1.156,0,2.092-0.938,2.092-2.09l0.005-17.534h0.927l-0.003,17.534   c0,1.151,0.932,2.09,2.09,2.09c1.15,0,2.087-0.938,2.087-2.09l0.008-30.225h0.918v11.138c0,2.243,2.922,2.243,2.916,0V29.799   c0-2.474-1.454-4.904-4.348-4.904h-8.355c-2.643,0-4.297,2.15-4.297,4.835v11.443c0,2.227,2.938,2.227,2.938,0V30.035h0.938   L400.651,60.26z"/>
</g>
<g>
	<path d="M427.617,1c1.733,0,3.142,1.404,3.142,3.141c0,1.733-1.408,3.136-3.142,3.136c-1.734,0-3.141-1.403-3.141-3.136   C424.477,2.404,425.883,1,427.617,1z"/>
	<path d="M423.902,37.729c0,0.967,0.791,1.76,1.762,1.76c0.974,0,1.762-0.792,1.762-1.76l0.003-14.775h0.781l-0.003,14.775   c0,0.967,0.785,1.76,1.761,1.76c0.97,0,1.759-0.792,1.759-1.76l0.007-25.465h0.772v9.383c0,1.889,2.465,1.889,2.457,0v-9.583   c0-2.083-1.225-4.131-3.662-4.131h-7.04c-2.224,0-3.619,1.812-3.619,4.073v9.641c0,1.877,2.477,1.877,2.477,0v-9.383h0.788   L423.902,37.729z"/>
</g>
<g>
	<path d="M431.838,61.547c1.734,0,3.143,1.403,3.143,3.141c0,1.734-1.408,3.137-3.143,3.137c-1.733,0-3.141-1.402-3.141-3.137   C428.697,62.95,430.104,61.547,431.838,61.547z"/>
	<path d="M428.124,98.275c0,0.966,0.791,1.761,1.762,1.761c0.974,0,1.762-0.795,1.762-1.761l0.003-14.774h0.781l-0.003,14.774   c0,0.966,0.785,1.761,1.761,1.761c0.97,0,1.759-0.795,1.759-1.761l0.007-25.465h0.772v9.382c0,1.891,2.464,1.891,2.457,0V72.61   c0-2.083-1.225-4.131-3.662-4.131h-7.04c-2.225,0-3.619,1.811-3.619,4.073v9.64c0,1.878,2.477,1.878,2.477,0v-9.382h0.788   L428.124,98.275z"/>
</g>
<g>
	<path d="M446.681,28.116c1.734,0,3.142,1.404,3.142,3.14c0,1.734-1.407,3.137-3.142,3.137s-3.139-1.403-3.139-3.137   C443.542,29.52,444.946,28.116,446.681,28.116z"/>
	<path d="M442.967,64.845c0,0.966,0.79,1.759,1.761,1.759c0.974,0,1.765-0.793,1.765-1.759l0.004-14.775h0.781l-0.004,14.775   c0,0.966,0.785,1.759,1.759,1.759c0.97,0,1.761-0.793,1.761-1.759l0.004-25.466h0.773v9.384c0,1.889,2.465,1.889,2.457,0v-9.583   c0-2.083-1.223-4.131-3.663-4.131h-7.039c-2.223,0-3.617,1.812-3.617,4.073v9.641c0,1.876,2.474,1.876,2.474,0v-9.384h0.79   L442.967,64.845z"/>
</g>
<g>
	<path d="M382.384,1c-1.734,0-3.143,1.404-3.143,3.141c0,1.733,1.408,3.136,3.143,3.136c1.733,0,3.14-1.403,3.14-3.136   C385.523,2.404,384.117,1,382.384,1z"/>
	<path d="M386.098,37.729c0,0.967-0.791,1.76-1.762,1.76c-0.974,0-1.762-0.792-1.762-1.76l-0.003-14.775h-0.781l0.003,14.775   c0,0.967-0.785,1.76-1.761,1.76c-0.97,0-1.759-0.792-1.759-1.76l-0.007-25.465h-0.772v9.383c0,1.889-2.465,1.889-2.457,0v-9.583   c0-2.083,1.225-4.131,3.662-4.131h7.04c2.224,0,3.62,1.812,3.62,4.073v9.641c0,1.877-2.478,1.877-2.478,0v-9.383h-0.788   L386.098,37.729z"/>
</g>
<g>
	<path d="M378.162,61.547c-1.734,0-3.143,1.403-3.143,3.141c0,1.734,1.408,3.137,3.143,3.137c1.733,0,3.141-1.402,3.141-3.137   C381.303,62.95,379.896,61.547,378.162,61.547z"/>
	<path d="M381.876,98.275c0,0.966-0.791,1.761-1.762,1.761c-0.974,0-1.762-0.795-1.762-1.761l-0.003-14.774h-0.781l0.003,14.774   c0,0.966-0.785,1.761-1.761,1.761c-0.97,0-1.759-0.795-1.759-1.761l-0.007-25.465h-0.772v9.382c0,1.891-2.464,1.891-2.457,0V72.61   c0-2.083,1.225-4.131,3.662-4.131h7.04c2.225,0,3.62,1.811,3.62,4.073v9.64c0,1.878-2.478,1.878-2.478,0v-9.382h-0.788   L381.876,98.275z"/>
</g>
<g>
	<path d="M363.319,28.116c-1.734,0-3.142,1.404-3.142,3.14c0,1.734,1.407,3.137,3.142,3.137s3.139-1.403,3.139-3.137   C366.458,29.52,365.054,28.116,363.319,28.116z"/>
	<path d="M367.033,64.845c0,0.966-0.79,1.759-1.761,1.759c-0.974,0-1.765-0.793-1.765-1.759l-0.004-14.775h-0.781l0.004,14.775   c0,0.966-0.785,1.759-1.759,1.759c-0.97,0-1.761-0.793-1.761-1.759l-0.004-25.466h-0.773v9.384c0,1.889-2.465,1.889-2.457,0v-9.583   c0-2.083,1.223-4.131,3.663-4.131h7.039c2.223,0,3.617,1.812,3.617,4.073v9.641c0,1.876-2.474,1.876-2.474,0v-9.384h-0.79   L367.033,64.845z"/>
</g>
<rect x="383.041" y="57.584" width="8.269" height="1.408"/>
<polygon points="383.041,55.88 378.87,58.288 383.041,60.695 "/>
<polygon points="391.31,60.695 395.481,58.289 391.31,55.88 "/>
<rect x="391.151" y="69.315" transform="matrix(-0.707 0.7072 -0.7072 -0.707 723.8777 -159.8395)" width="7.791" height="1.407"/>
<polygon points="390.589,71.071 389.343,75.723 393.994,74.476 "/>
<polygon points="399.503,68.967 400.752,64.315 396.099,65.562 "/>
<g>
	<rect x="389.141" y="47.05" transform="matrix(-0.7072 -0.707 0.707 -0.7072 635.8411 358.8402)" width="6.173" height="1.407"/>
	<polygon points="391.747,43.868 387.096,42.622 388.343,47.273  "/>
	<polygon points="392.72,51.65 397.371,52.899 396.125,48.246  "/>
</g>
<rect x="419.022" y="57.584" width="8.269" height="1.408"/>
<polygon points="427.291,55.88 431.462,58.288 427.291,60.695 "/>
<polygon points="419.022,60.695 414.851,58.289 419.022,55.88 "/>
<rect x="411.389" y="69.315" transform="matrix(0.707 0.7072 -0.7072 0.707 171.1756 -273.1645)" width="7.791" height="1.407"/>
<polygon points="419.743,71.071 420.989,75.723 416.338,74.476 "/>
<polygon points="410.829,68.967 409.58,64.315 414.233,65.562 "/>
<g>
	<rect x="415.019" y="47.05" transform="matrix(0.7072 -0.707 0.707 0.7072 88.6637 309.5948)" width="6.173" height="1.407"/>
	<polygon points="418.585,43.868 423.236,42.622 421.989,47.273  "/>
	<polygon points="417.612,51.65 412.961,52.899 414.207,48.246  "/>
</g>
</svg>