<svg xmlns:x="http://ns.adobe.com/Extensibility/1.0/" xmlns:i="http://ns.adobe.com/AdobeIllustrator/10.0/" xmlns:graph="http://ns.adobe.com/Graphs/1.0/" xmlns="http://www.w3.org/2000/svg" xmlns:xlink="http://www.w3.org/1999/xlink" xmlns:a="http://ns.adobe.com/AdobeSVGViewerExtensions/3.0/" version="1.1" id="Layer_1" x="0px" y="0px" width="100px" height="100px" viewBox="0 0 100 100" enable-background="new 0 0 100 100" xml:space="preserve">
<path d="M94,15.33h-9.335V6c0-0.809-0.487-1.538-1.234-1.848c-0.748-0.31-1.606-0.14-2.18,0.434l-8.634,8.633  c-7.128-4.48-15.323-6.84-23.807-6.84C24.102,6.378,4,26.48,4,51.189C4,75.898,24.102,96,48.811,96s44.811-20.102,44.811-44.811  c0-8.485-2.361-16.681-6.843-23.811l8.636-8.634c0.572-0.572,0.743-1.433,0.434-2.18C95.538,15.817,94.809,15.33,94,15.33z   M89.621,51.189C89.621,73.692,71.313,92,48.811,92S8,73.692,8,51.189c0-22.503,18.308-40.811,40.811-40.811  c7.418,0,14.59,1.986,20.893,5.753l-5.79,5.79c-0.375,0.375-0.586,0.884-0.586,1.414v4.303c-4.342-2.675-9.364-4.138-14.515-4.138  h-0.002c-15.268,0-27.688,12.421-27.688,27.688s12.421,27.688,27.688,27.688c15.265,0,27.684-12.421,27.684-27.688  c0-5.153-1.464-10.179-4.14-14.523h4.305c0.53,0,1.039-0.21,1.414-0.585l5.792-5.79C87.634,36.597,89.621,43.77,89.621,51.189z   M63.327,33.842l-8.601,8.602c-1.689-1.146-3.726-1.818-5.916-1.818c-5.825,0-10.563,4.739-10.563,10.563  s4.738,10.563,10.563,10.563c5.823,0,10.562-4.739,10.562-10.563c0-2.191-0.671-4.228-1.818-5.917l8.605-8.605h1.335  c3.219,4.141,5,9.255,5,14.523c0,13.062-10.624,23.688-23.684,23.688c-13.062,0-23.688-10.626-23.688-23.688  S35.749,27.5,48.811,27.5c0.001,0,0.001,0,0.002,0c5.266,0,10.375,1.781,14.515,4.998V33.842z M55.372,51.189  c0,3.619-2.943,6.563-6.562,6.563c-3.619,0-6.563-2.944-6.563-6.563s2.944-6.563,6.563-6.563c1.081,0,2.1,0.268,3,0.733  l-4.416,4.417c-0.781,0.781-0.781,2.047,0,2.828c0.391,0.391,0.902,0.586,1.414,0.586s1.023-0.195,1.414-0.586l4.416-4.416  C55.104,49.088,55.372,50.107,55.372,51.189z M82.809,25.69c-0.018,0.018-0.035,0.034-0.052,0.052l-6.926,6.924h-8.504v-8.501  l6.913-6.913c0.027-0.025,0.053-0.052,0.079-0.079l6.346-6.345v6.501c0,1.104,0.896,2,2,2h6.506L82.809,25.69z"/>
</svg>